<svg width="54" height="54" viewBox="0 0 54 54" fill="none" xmlns="http://www.w3.org/2000/svg">
<path d="M46.4062 5.90625H7.59375C6.66035 5.90625 5.90625 6.66035 5.90625 7.59375V46.4062C5.90625 47.3396 6.66035 48.0938 7.59375 48.0938H46.4062C47.3396 48.0938 48.0938 47.3396 48.0938 46.4062V7.59375C48.0938 6.66035 47.3396 5.90625 46.4062 5.90625ZM44.7188 44.7188H35.0104V31.7566H40.4947L41.3174 25.3916H35.0104V21.3258C35.0104 19.4801 35.5219 18.225 38.1639 18.225H41.5336V12.5297C40.9482 12.4506 38.9496 12.2766 36.6188 12.2766C31.7566 12.2766 28.4291 15.2455 28.4291 20.693V25.3863H22.9342V31.7514H28.4344V44.7188H9.28125V9.28125H44.7188V44.7188Z" fill="white"/>
</svg>
