<svg width="53" height="53" viewBox="0 0 53 53" fill="none" xmlns="http://www.w3.org/2000/svg">
<path d="M26.5004 15.8842C20.6259 15.8842 15.8848 20.6252 15.8848 26.4997C15.8848 32.3742 20.6259 37.1152 26.5004 37.1152C32.3749 37.1152 37.1159 32.3742 37.1159 26.4997C37.1159 20.6252 32.3749 15.8842 26.5004 15.8842ZM26.5004 33.399C22.7013 33.399 19.6011 30.2987 19.6011 26.4997C19.6011 22.7007 22.7013 19.6004 26.5004 19.6004C30.2994 19.6004 33.3997 22.7007 33.3997 26.4997C33.3997 30.2987 30.2994 33.399 26.5004 33.399ZM37.5507 12.9754C36.1791 12.9754 35.0715 14.083 35.0715 15.4546C35.0715 16.8261 36.1791 17.9338 37.5507 17.9338C38.9222 17.9338 40.0299 16.8313 40.0299 15.4546C40.0303 15.1289 39.9664 14.8063 39.842 14.5053C39.7175 14.2044 39.5349 13.9309 39.3046 13.7006C39.0743 13.4703 38.8009 13.2877 38.4999 13.1633C38.1989 13.0388 37.8764 12.975 37.5507 12.9754ZM47.1931 26.4997C47.1931 23.6427 47.219 20.8115 47.0586 17.9596C46.8981 14.6471 46.1425 11.7073 43.7202 9.28504C41.2928 6.85759 38.3581 6.10711 35.0456 5.94666C32.1886 5.78621 29.3574 5.81209 26.5055 5.81209C23.6485 5.81209 20.8174 5.78621 17.9655 5.94666C14.653 6.10711 11.7132 6.86277 9.2909 9.28504C6.86345 11.7125 6.11297 14.6471 5.95252 17.9596C5.79207 20.8167 5.81795 23.6478 5.81795 26.4997C5.81795 29.3515 5.79207 32.1879 5.95252 35.0397C6.11297 38.3522 6.86863 41.2921 9.2909 43.7143C11.7183 46.1418 14.653 46.8923 17.9655 47.0527C20.8225 47.2132 23.6537 47.1873 26.5055 47.1873C29.3626 47.1873 32.1937 47.2132 35.0456 47.0527C38.3581 46.8923 41.2979 46.1366 43.7202 43.7143C46.1476 41.2869 46.8981 38.3522 47.0586 35.0397C47.2242 32.1879 47.1931 29.3567 47.1931 26.4997ZM42.6385 38.7042C42.2606 39.6462 41.8052 40.3501 41.0754 41.0747C40.3456 41.8045 39.6469 42.2599 38.7049 42.6378C35.9824 43.7195 29.5179 43.4762 26.5004 43.4762C23.4829 43.4762 17.0132 43.7195 14.2907 42.6429C13.3487 42.2651 12.6448 41.8096 11.9202 41.0799C11.1904 40.3501 10.7349 39.6513 10.3571 38.7094C9.28054 35.9817 9.52381 29.5172 9.52381 26.4997C9.52381 23.4822 9.28054 17.0125 10.3571 14.29C10.7349 13.348 11.1904 12.6441 11.9202 11.9195C12.65 11.1949 13.3487 10.7343 14.2907 10.3564C17.0132 9.27986 23.4829 9.52312 26.5004 9.52312C29.5179 9.52312 35.9876 9.27986 38.71 10.3564C39.652 10.7343 40.3559 11.1897 41.0806 11.9195C41.8103 12.6493 42.2658 13.348 42.6436 14.29C43.7202 17.0125 43.4769 23.4822 43.4769 26.4997C43.4769 29.5172 43.7202 35.9817 42.6385 38.7042Z" fill="white"/>
</svg>
