<svg width="54" height="54" viewBox="0 0 54 54" fill="none" xmlns="http://www.w3.org/2000/svg">
<path d="M44.7029 5.90625H9.29707C7.425 5.90625 5.90625 7.425 5.90625 9.29707V44.7029C5.90625 46.575 7.425 48.0938 9.29707 48.0938H44.7029C46.575 48.0938 48.0938 46.575 48.0938 44.7029V9.29707C48.0938 7.425 46.575 5.90625 44.7029 5.90625ZM44.7029 44.7188C21.0885 44.7135 9.28125 44.7082 9.28125 44.7029C9.28652 21.0885 9.2918 9.28125 9.29707 9.28125C32.9115 9.28652 44.7188 9.2918 44.7188 9.29707C44.7135 32.9115 44.7082 44.7188 44.7029 44.7188ZM12.1605 21.7213H18.4201V41.8553H12.1605V21.7213ZM15.293 18.9686C17.2916 18.9686 18.9211 17.3443 18.9211 15.3404C18.9211 14.864 18.8273 14.3922 18.6449 13.952C18.4626 13.5118 18.1953 13.1119 17.8584 12.775C17.5215 12.4381 17.1216 12.1708 16.6814 11.9885C16.2412 11.8061 15.7694 11.7123 15.293 11.7123C14.8165 11.7123 14.3447 11.8061 13.9045 11.9885C13.4644 12.1708 13.0644 12.4381 12.7275 12.775C12.3906 13.1119 12.1233 13.5118 11.941 13.952C11.7587 14.3922 11.6648 14.864 11.6648 15.3404C11.6596 17.3443 13.2838 18.9686 15.293 18.9686ZM28.5979 31.8937C28.5979 29.2676 29.0988 26.7258 32.3525 26.7258C35.5588 26.7258 35.6063 29.7264 35.6063 32.0625V41.8553H41.8605V30.8127C41.8605 25.3916 40.6898 21.2203 34.3564 21.2203C31.3137 21.2203 29.2729 22.892 28.4344 24.474H28.35V21.7213H22.3436V41.8553H28.5979V31.8937Z" fill="white"/>
</svg>
