<svg width="1440" height="260" viewBox="0 0 1440 260" fill="none" xmlns="http://www.w3.org/2000/svg">
<path fill-rule="evenodd" clip-rule="evenodd" d="M0 0L30 64.6667C60 129.333 120 258.667 180 258.667C240 258.667 300 129.333 360 107.778C420 86.2222 480 172.444 540 186.815C600 201.185 660 143.704 720 114.963C780 86.2222 840 86.2222 900 107.778C960 129.333 1020 172.444 1080 194C1140 215.556 1200 215.556 1260 194C1320 172.444 1380 129.333 1410 107.778L1440 86.2222V388H1410C1380 388 1320 388 1260 388C1200 388 1140 388 1080 388C1020 388 960 388 900 388C840 388 780 388 720 388C660 388 600 388 540 388C480 388 420 388 360 388C300 388 240 388 180 388C120 388 60 388 30 388H0V0Z" style="fill:#0099FF;stroke-width:0;"/>
<!-- <path fill-rule="evenodd" clip-rule="evenodd" d="M0 0L30 64.6667C60 129.333 120 258.667 180 258.667C240 258.667 300 129.333 360 107.778C420 86.2222 480 172.444 540 186.815C600 201.185 660 143.704 720 114.963C780 86.2222 840 86.2222 900 107.778C960 129.333 1020 172.444 1080 194C1140 215.556 1200 215.556 1260 194C1320 172.444 1380 129.333 1410 107.778L1440 86.2222V388H1410C1380 388 1320 388 1260 388C1200 388 1140 388 1080 388C1020 388 960 388 900 388C840 388 780 388 720 388C660 388 600 388 540 388C480 388 420 388 360 388C300 388 240 388 180 388C120 388 60 388 30 388H0V0Z" style="fill:#06062d;stroke-width:0;"/> -->
</svg>
