<svg width="57" height="586" viewBox="0 0 57 586" fill="none" xmlns="http://www.w3.org/2000/svg">
  <path id="svg_1" stroke-width="6" stroke="#4285F4" d="m28.77791,3.33411c34,-3.40664 34,20.43979 0,17.03319c-34,-3.4067 -34,20.4398 0,17.0332c34,-3.4067 34,20.4398 0,17.0331c-34,-3.4066 -34,20.4398 0,17.0332c34,-3.4066 34,20.4398 0,17.0332c-34,-3.4066 -34,20.44 0,17.033c34,-3.406 34,20.44 0,17.033c-34,-3.406 -34.00001,20.44 0,17.034c34,-3.407 34,20.439 0,17.033c-34.00001,-3.407 -34.00001,20.44 0,17.033"/>
  <path id="svg_2" stroke-width="6" stroke="#4285F4" d="m28.95787,140.30223c34,-3.40664 34,20.43979 0,17.03319c-34,-3.4067 -34,20.4398 0,17.0332c34,-3.4067 34,20.4398 0,17.0331c-34,-3.4066 -34,20.4398 0,17.0332c34,-3.4066 34,20.4398 0,17.0332c-34,-3.4066 -34,20.44 0,17.033c34,-3.406 34,20.44 0,17.033c-34,-3.406 -34.00001,20.44 0,17.034c34,-3.407 34,20.439 0,17.033c-34.00001,-3.407 -34.00001,20.44 0,17.033"/>
  <path id="svg_3" stroke-width="6" stroke="#4285F4" d="m28.2745,276.74871c34,-3.40664 34,20.43979 0,17.03319c-34,-3.4067 -34,20.4398 0,17.0332c34,-3.4067 34,20.4398 0,17.0331c-34,-3.4066 -34,20.4398 0,17.0332c34,-3.4066 34,20.4398 0,17.0332c-34,-3.4066 -34,20.44 0,17.033c34,-3.406 34,20.44 0,17.033c-34,-3.406 -34.00001,20.44 0,17.034c34,-3.407 34,20.439 0,17.033c-34.00001,-3.407 -34.00001,20.44 0,17.033"/>
  <path id="svg_5" stroke-width="6" stroke="#4285F4" d="m28.73008,412.96739c34,-3.40664 34,20.43979 0,17.03319c-34,-3.4067 -34,20.4398 0,17.0332c34,-3.4067 34,20.4398 0,17.0331c-34,-3.4066 -34,20.4398 0,17.0332c34,-3.4066 34,20.4398 0,17.0332c-34,-3.4066 -34,20.44 0,17.033c34,-3.406 34,20.44 0,17.033c-34,-3.406 -34.00001,20.44 0,17.034c34,-3.407 34,20.439 0,17.033c-34.00001,-3.407 -34.00001,20.44 0,17.033"/>
</svg>